<?xml version="1.0" encoding="iso-8859-1"?>
<!-- Generator: Adobe Illustrator 19.0.0, SVG Export Plug-In . SVG Version: 6.00 Build 0)  -->
<svg version="1.1" id="Layer_1" xmlns="http://www.w3.org/2000/svg" xmlns:xlink="http://www.w3.org/1999/xlink" x="0px" y="0px"
	 viewBox="0 0 455 455" style="enable-background:new 0 0 455 455;" xml:space="preserve">
<g>
	<path style="fill-rule:evenodd;clip-rule:evenodd;" d="M330.896,223.172c-6.994,0.923-12.77,4.387-18.214,8.558
		c-6.072,4.643-11.146,10.323-16.395,15.848c-0.702,0.742-0.371,1.133,0.14,1.7c3.66,4.116,7.46,8.132,11.787,11.596
		c7.15,5.756,14.886,10.203,24.326,11.065c10.634,0.998,19.252-3.976,23.048-13.612c1.313-3.329,1.865-6.814,1.88-10.89
		c0.04-1.018-0.115-2.507-0.311-4.016C355.492,230.066,344.232,221.412,330.896,223.172z"/>
	<path style="fill-rule:evenodd;clip-rule:evenodd;" d="M242.174,231.399c-4.522-3.269-9.301-6.187-14.785-7.541
		c-8.363-2.076-15.958-0.882-21.895,5.916c-4.602,5.284-6.814,11.537-6.799,18.957c0.04,0.687,0.12,1.785,0.216,2.878
		c0.902,10.343,7.816,18.134,17.823,19.959c5.505,1.018,10.849,0.271,16.059-1.745c11.085-4.327,19.528-12.083,27.244-20.817
		c0.566-0.627,0.276-0.943-0.156-1.414C254.357,241.797,248.717,236.102,242.174,231.399z"/>
	<path style="fill-rule:evenodd;clip-rule:evenodd;" d="M0,0v455h455V0H0z M381.208,268.691
		c-7.561,21.032-25.048,33.015-47.414,32.744c-13.612-0.155-25.244-5.425-35.843-13.477c-6.929-5.249-12.865-11.552-18.585-18.074
		c-0.938-1.078-1.389-1.334-2.562-0.121c-5.836,6.051-11.381,12.419-17.944,17.763c-8.282,6.738-17.448,11.812-28.142,13.281
		c-18.957,2.562-35.311-2.432-48.041-17.292c-2.878-3.369-5.054-7.21-6.854-11.281c-0.216-0.511-0.296-1.118-0.863-1.549
		c-2.507,5.385-5.6,10.338-9.636,14.65c-10.223,10.85-22.817,16.51-37.677,17.036c-10.754,0.371-21.273-0.978-31.065-5.64
		c-16.43-7.776-25.459-20.722-26.573-39.011c-0.08-1.389,0.291-1.745,1.68-1.745c8.834,0.06,17.668,0.06,26.502,0
		c1.309,0,1.685,0.391,1.915,1.685c1.705,10.067,7.109,17.082,17.277,19.604c14.158,3.53,27.164-4.522,30.884-19.092
		c2.527-9.812,1.429-19.212-5.094-27.38c-4.307-5.425-10.163-8.067-17.056-8.558c-9.912-0.707-18.019,2.567-23.875,10.789
		c-0.547,0.782-1.173,0.963-2.055,0.963c-7.972-0.02-15.924-0.04-23.875,0.02c-1.389,0-1.665-0.376-1.429-1.684
		c4.131-22.973,8.227-45.93,12.318-68.903c0.566-3.134,1.138-6.282,1.645-9.416c0.176-1.043,0.572-1.434,1.685-1.434
		c26.442,0.04,52.859,0.04,79.281,0c1.253,0,1.544,0.411,1.524,1.589c-0.055,7.089-0.055,14.179,0.02,21.268
		c0,1.429-0.351,1.82-1.82,1.82c-18.937-0.04-37.878,0-56.815-0.055c-1.564,0-2.251,0.251-2.547,2.015
		c-1.685,10.067-3.525,20.115-5.284,30.177c-0.06,0.431-0.376,1.023,0.095,1.294c0.511,0.316,0.802-0.311,1.098-0.607
		c8.674-8.343,19.253-10.909,30.924-10.283c11.241,0.607,20.817,4.818,28.728,12.81c3.294,3.329,5.856,7.189,7.932,11.381
		c0.215,0.446,0.451,0.897,0.862,1.7c2.231-5.891,4.973-11.025,8.894-15.472c8.593-9.771,19.428-15.021,32.333-16.214
		c18.155-1.685,33.075,5.344,46.141,17.272c5.425,4.938,10.223,10.458,14.926,16.079c0.998,1.198,1.449,1.293,2.507,0.04
		c6.052-7.205,12.103-14.434,19.543-20.27c8.618-6.753,18.074-11.632,29.084-12.905c27.164-3.174,49.86,11.612,55.656,39.658
		C386.046,245.658,385.298,257.33,381.208,268.691z"/>
</g>
<g>
</g>
<g>
</g>
<g>
</g>
<g>
</g>
<g>
</g>
<g>
</g>
<g>
</g>
<g>
</g>
<g>
</g>
<g>
</g>
<g>
</g>
<g>
</g>
<g>
</g>
<g>
</g>
<g>
</g>
</svg>
